<?xml version="1.0" encoding="UTF-8" standalone="no"?> <svg width="64" height="64" viewBox="0 0 64 64" fill="none" xmlns="http://www.w3.org/2000/svg">
<path d="M19.3401 10.5C18.9423 10.5 18.5607 10.658 18.2794 10.9393C17.9981 11.2206 17.8401 11.6022 17.8401 12C17.8401 12.3978 17.9981 12.7794 18.2794 13.0607C18.5607 13.342 18.9423 13.5 19.3401 13.5C27.601 13.5106 35.5205 16.7969 41.3618 22.6382C47.2032 28.4796 50.4895 36.3991 50.5001 44.66C50.5001 45.0578 50.6581 45.4394 50.9394 45.7207C51.2207 46.002 51.6023 46.16 52.0001 46.16C52.3979 46.16 52.7794 46.002 53.0607 45.7207C53.3421 45.4394 53.5001 45.0578 53.5001 44.66C53.4921 35.6026 49.8906 26.9185 43.4861 20.514C37.0816 14.1095 28.3974 10.5079 19.3401 10.5V10.5Z" fill="url(#paint0_linear_122:2337)"/>
<path d="M19.3401 23.1599C18.9423 23.1599 18.5607 23.3179 18.2794 23.5993C17.9981 23.8806 17.8401 24.2621 17.8401 24.6599C17.8401 25.0577 17.9981 25.4393 18.2794 25.7206C18.5607 26.0019 18.9423 26.1599 19.3401 26.1599C24.245 26.1652 28.9474 28.116 32.4157 31.5843C35.884 35.0526 37.8348 39.755 37.8401 44.6599C37.8401 45.0577 37.9981 45.4393 38.2794 45.7206C38.5607 46.0019 38.9423 46.1599 39.3401 46.1599C39.7379 46.1599 40.1194 46.0019 40.4007 45.7206C40.6821 45.4393 40.8401 45.0577 40.8401 44.6599C40.8348 38.9594 38.5679 33.4938 34.537 29.463C30.5061 25.4321 25.0406 23.1652 19.3401 23.1599V23.1599Z" fill="url(#paint1_linear_122:2337)"/>
<path d="M13.09 38.4099C7.51999 43.7999 11.6 53.6299 19.34 53.4999C27.08 53.6299 31.16 43.7899 25.59 38.4099C23.9322 36.7526 21.6841 35.8215 19.34 35.8215C16.9959 35.8215 14.7477 36.7526 13.09 38.4099V38.4099ZM23.47 48.7899C17.85 54.0799 9.91999 46.1499 15.21 40.5299C20.85 35.2399 28.76 43.1699 23.47 48.7899Z" fill="url(#paint2_linear_122:2337)"/>
<defs>
<linearGradient id="paint0_linear_122:2337" x1="17.8601" y1="28.33" x2="53.5001" y2="28.33" gradientUnits="userSpaceOnUse">
<stop stop-color="#6031A5"/>
<stop offset="0.63" stop-color="#412083"/>
<stop offset="1" stop-color="#331974"/>
</linearGradient>
<linearGradient id="paint1_linear_122:2337" x1="428.62" y1="820.34" x2="957.16" y2="820.34" gradientUnits="userSpaceOnUse">
<stop stop-color="#6031A5"/>
<stop offset="0.63" stop-color="#412083"/>
<stop offset="1" stop-color="#331974"/>
</linearGradient>
<linearGradient id="paint2_linear_122:2337" x1="196.097" y1="825.394" x2="507.937" y2="825.394" gradientUnits="userSpaceOnUse">
<stop stop-color="#6031A5"/>
<stop offset="0.63" stop-color="#412083"/>
<stop offset="1" stop-color="#331974"/>
</linearGradient>
</defs>
</svg>
